<svg width="546" height="546" viewBox="0 0 546 546" fill="none" xmlns="http://www.w3.org/2000/svg">
    <g id="Avatar" clip-path="url(#clip0_301_2507)" filter="url(#filter0_f_301_2507)">
        <rect width="524" height="524" transform="translate(11 11)" fill="#D2F4F0" />
        <g id="Index">
            <g id="Shadow" opacity="0.2">
                <g id="RightEar">
                    <path id="Ellipse 6"
                        d="M456.324 236.007C437.167 245.663 412.951 242.071 401.89 229.345C390.829 216.618 395.949 198.24 415.105 188.584C434.262 178.929 458.477 182.521 469.539 195.247C480.6 207.973 475.48 226.352 456.324 236.007Z"
                        fill="#61BCE2" stroke="black" stroke-width="6.37119" />
                    <ellipse id="Ellipse 7" cx="12.5277" cy="14.8672" rx="12.5277" ry="14.8672"
                        transform="matrix(0.656007 0.754754 -0.89298 0.450096 438.311 193.529)"
                        fill="#90D0EB" />
                </g>
                <g id="LeftEar">
                    <path id="Ellipse 6_2"
                        d="M106.683 215.119C116.67 234.104 138.47 245.244 154.865 241.308C171.261 237.372 177.766 219.437 167.779 200.451C157.792 181.465 135.992 170.326 119.597 174.262C103.201 178.198 96.6957 196.133 106.683 215.119Z"
                        fill="#61BCE2" stroke="black" stroke-width="6.37119" />
                    <ellipse id="Ellipse 7_2" cx="12.5277" cy="14.8672" rx="12.5277" ry="14.8672"
                        transform="matrix(-0.972371 0.23344 0.465552 0.88502 146.016 190.999)"
                        fill="#90D0EB" />
                </g>
                <path id="Vector 1"
                    d="M96.5939 560.973V564.449H100.069H471.915H475.39V560.973V308.677C475.39 275.797 463.215 242.814 436.463 222.697C330.536 143.043 210.479 161.014 121.819 234.051C104.839 248.039 96.5939 269.419 96.5939 291.038V560.973Z"
                    fill="#61BCE2" stroke="black" stroke-width="6.95038" />
                <path id="Belly "
                    d="M185.211 561C185.211 426.915 380.401 399.114 388.8 561H185.211Z"
                    fill="#90D0EB" />
                <g id="LeftEye">
                    <path id="Sclera"
                        d="M254.425 298.596C254.425 342.513 217.801 378.236 172.469 378.236C127.137 378.236 90.5122 342.513 90.5122 298.596C90.5122 254.68 127.137 218.957 172.469 218.957C217.801 218.957 254.425 254.68 254.425 298.596Z"
                        fill="white" stroke="black" stroke-width="5.21279" />
                    <g id="EyeBall">
                        <circle id="Ellipse 3" cx="108.299" cy="298.307" r="22.2992" fill="black" />
                        <ellipse id="Ellipse 4" cx="102.797" cy="293.384" rx="9.26718" ry="8.68798"
                            fill="white" />
                    </g>
                </g>
                <g id="RightEye">
                    <path id="Sclera_2"
                        d="M485.236 302.072C485.236 345.658 450.795 380.843 408.492 380.843C366.189 380.843 331.748 345.658 331.748 302.072C331.748 258.485 366.189 223.301 408.492 223.301C450.795 223.301 485.236 258.485 485.236 302.072Z"
                        fill="white" stroke="black" stroke-width="6.95038" />
                    <g id="EyeBall_2">
                        <circle id="Ellipse 3_2" cx="445.698" cy="302.072" r="30.6975" fill="black" />
                        <ellipse id="Ellipse 4_2" cx="438.123" cy="295.294" rx="12.7574"
                            ry="11.9601" fill="white" />
                    </g>
                </g>
                <g id="Teeth">
                    <path
                        d="M274.408 398.609V379.168V372.734H292H312.056V396.099C312.056 399.757 311.327 403.577 308.788 406.21C304.664 410.49 300.269 409.213 292 401.687C285.72 407.46 281.942 409.433 276.466 403.983C275.054 402.579 274.408 400.6 274.408 398.609Z"
                        fill="white" />
                    <path
                        d="M292 401.687C285.72 407.46 281.942 409.433 276.466 403.983C275.054 402.579 274.408 400.6 274.408 398.609V379.168V372.734H292M292 401.687V372.734M292 401.687C300.269 409.213 304.664 410.49 308.788 406.21C311.327 403.577 312.056 399.757 312.056 396.099V372.734H292"
                        stroke="black" stroke-width="6.04772" />
                </g>
                <path id="Mouse"
                    d="M263.383 379.095L287.011 375.523C292.119 374.751 297.318 374.81 302.407 375.699L319.098 378.613C323.56 379.392 328.134 378.111 331.543 375.129C333.174 373.701 334.086 371.574 333.686 369.443C327.24 335.08 266.492 337.81 252.355 366.711C251.986 367.467 251.819 368.306 251.819 369.147C251.819 375.302 257.297 380.015 263.383 379.095Z"
                    fill="#C8BAAA" stroke="black" stroke-width="4.98887" />
                <path id="Nose"
                    d="M315.555 339.686C315.65 343.386 313.535 347.037 309.538 349.904C305.552 352.762 299.875 354.682 293.449 354.847C287.023 355.012 281.254 353.387 277.127 350.737C272.988 348.079 270.688 344.542 270.593 340.842C270.497 337.142 272.613 333.492 276.61 330.625C280.595 327.767 286.273 325.847 292.699 325.682C299.125 325.517 304.894 327.142 309.021 329.792C313.16 332.45 315.46 335.987 315.555 339.686Z"
                    fill="#53514F" stroke="black" stroke-width="4.25461" />
            </g>
            <g id="Substance">
                <g id="RightEar_2">
                    <path id="Ellipse 6_3"
                        d="M442.324 210.007C423.167 219.663 398.951 216.071 387.89 203.345C376.829 190.618 381.949 172.24 401.105 162.584C420.262 152.929 444.477 156.521 455.539 169.247C466.6 181.973 461.48 200.352 442.324 210.007Z"
                        fill="#61BCE2" stroke="black" stroke-width="6.37119" />
                    <ellipse id="Ellipse 7_3" cx="12.5277" cy="14.8672" rx="12.5277" ry="14.8672"
                        transform="matrix(0.656007 0.754754 -0.89298 0.450096 424.311 167.529)"
                        fill="#90D0EB" />
                </g>
                <g id="LeftEar_2">
                    <path id="Ellipse 6_4"
                        d="M92.6829 189.119C102.67 208.104 124.47 219.244 140.865 215.308C157.261 211.372 163.766 193.437 153.779 174.451C143.792 155.465 121.992 144.326 105.597 148.262C89.2014 152.198 82.6957 170.133 92.6829 189.119Z"
                        fill="#61BCE2" stroke="black" stroke-width="6.37119" />
                    <ellipse id="Ellipse 7_4" cx="12.5277" cy="14.8672" rx="12.5277" ry="14.8672"
                        transform="matrix(-0.972371 0.23344 0.465552 0.88502 132.016 164.999)"
                        fill="#90D0EB" />
                </g>
                <path id="Vector 1_2"
                    d="M82.5939 534.973V538.449H86.0691H457.915H461.39V534.973V282.677C461.39 249.797 449.215 216.814 422.463 196.697C316.536 117.043 196.479 135.014 107.819 208.051C90.8391 222.039 82.5939 243.419 82.5939 265.038V534.973Z"
                    fill="#61BCE2" stroke="black" stroke-width="6.95038" />
                <path id="Belly _2"
                    d="M171.211 535C171.211 400.915 366.401 373.114 374.8 535H171.211Z"
                    fill="#90D0EB" />
                <g id="LeftEye_2">
                    <path id="Sclera_3"
                        d="M240.425 272.596C240.425 316.513 203.801 352.236 158.469 352.236C113.137 352.236 76.5122 316.513 76.5122 272.596C76.5122 228.68 113.137 192.957 158.469 192.957C203.801 192.957 240.425 228.68 240.425 272.596Z"
                        fill="white" stroke="black" stroke-width="5.21279" />
                    <g id="EyeBall_3">
                        <circle id="Ellipse 3_3" cx="94.2994" cy="272.307" r="22.2992" fill="black" />
                        <ellipse id="Ellipse 4_3" cx="88.797" cy="267.384" rx="9.26718" ry="8.68798"
                            fill="white" />
                    </g>
                </g>
                <g id="RightEye_2">
                    <path id="Sclera_4"
                        d="M471.236 276.072C471.236 319.658 436.795 354.843 394.492 354.843C352.189 354.843 317.748 319.658 317.748 276.072C317.748 232.485 352.189 197.301 394.492 197.301C436.795 197.301 471.236 232.485 471.236 276.072Z"
                        fill="white" stroke="black" stroke-width="6.95038" />
                    <g id="EyeBall_4">
                        <circle id="Ellipse 3_4" cx="431.698" cy="276.072" r="30.6975" fill="black" />
                        <ellipse id="Ellipse 4_4" cx="424.123" cy="269.294" rx="12.7574"
                            ry="11.9601" fill="white" />
                    </g>
                </g>
                <g id="Teeth_2">
                    <path
                        d="M260.408 372.609V353.168V346.734H278H298.056V370.099C298.056 373.757 297.327 377.577 294.788 380.21C290.664 384.49 286.269 383.213 278 375.687C271.72 381.46 267.942 383.433 262.466 377.983C261.054 376.579 260.408 374.6 260.408 372.609Z"
                        fill="white" />
                    <path
                        d="M278 375.687C271.72 381.46 267.942 383.433 262.466 377.983C261.054 376.579 260.408 374.6 260.408 372.609V353.168V346.734H278M278 375.687V346.734M278 375.687C286.269 383.213 290.664 384.49 294.788 380.21C297.327 377.577 298.056 373.757 298.056 370.099V346.734H278"
                        stroke="black" stroke-width="6.04772" />
                </g>
                <path id="Mouse_2"
                    d="M249.383 353.095L273.011 349.523C278.119 348.751 283.318 348.81 288.407 349.699L305.098 352.613C309.56 353.392 314.134 352.111 317.543 349.129C319.174 347.701 320.086 345.574 319.686 343.443C313.24 309.08 252.492 311.81 238.355 340.711C237.986 341.467 237.819 342.306 237.819 343.147C237.819 349.302 243.297 354.015 249.383 353.095Z"
                    fill="#C8BAAA" stroke="black" stroke-width="4.98887" />
                <path id="Nose_2"
                    d="M301.555 313.686C301.65 317.386 299.535 321.037 295.538 323.904C291.552 326.762 285.875 328.682 279.449 328.847C273.023 329.012 267.254 327.387 263.127 324.737C258.988 322.079 256.688 318.542 256.593 314.842C256.497 311.142 258.613 307.492 262.61 304.625C266.595 301.767 272.273 299.847 278.699 299.682C285.125 299.517 290.894 301.142 295.021 303.792C299.16 306.45 301.46 309.987 301.555 313.686Z"
                    fill="#53514F" stroke="black" stroke-width="4.25461" />
            </g>
        </g>
    </g>
    <defs>
        <filter id="filter0_f_301_2507" x="0" y="0" width="546" height="546"
            filterUnits="userSpaceOnUse" color-interpolation-filters="sRGB">
            <feFlood flood-opacity="0" result="BackgroundImageFix" />
            <feBlend mode="normal" in="SourceGraphic" in2="BackgroundImageFix" result="shape" />
            <feGaussianBlur stdDeviation="5.5" result="effect1_foregroundBlur_301_2507" />
        </filter>
        <clipPath id="clip0_301_2507">
            <rect width="524" height="524" fill="white" transform="translate(11 11)" />
        </clipPath>
    </defs>
</svg>