<svg width="546" height="546" viewBox="0 0 546 546" fill="none" xmlns="http://www.w3.org/2000/svg">
    <g id="Avatar" filter="url(#filter0_f_40_1189)">
        <g clip-path="url(#clip0_40_1189)">
            <rect x="11" y="11" width="524" height="524" rx="12" fill="#D2F4F0" />
            <g id="Avatar">
                <g id="Shadow" opacity="0.2">
                    <g id="Group 4">
                        <path id="Ellipse 6"
                            d="M457.383 210.007C438.226 219.663 414.011 216.071 402.95 203.344C391.888 190.618 397.008 172.24 416.165 162.584C435.321 152.929 459.537 156.521 470.598 169.247C481.659 181.973 476.539 200.352 457.383 210.007Z"
                            fill="#61BCE2" stroke="black" stroke-width="6.37119" />
                        <ellipse id="Ellipse 7" cx="12.5277" cy="14.8672" rx="12.5277" ry="14.8672"
                            transform="matrix(0.656007 0.754754 -0.89298 0.450096 439.37 167.529)" fill="#FFE0E0" />
                    </g>
                    <g id="Group 6">
                        <path id="Ellipse 6_2"
                            d="M107.742 189.119C117.729 208.104 139.529 219.244 155.924 215.308C172.319 211.371 178.825 193.437 168.838 174.451C158.851 155.465 137.051 144.326 120.656 148.262C104.26 152.198 97.7546 170.133 107.742 189.119Z"
                            fill="#61BCE2" stroke="black" stroke-width="6.37119" />
                        <ellipse id="Ellipse 7_2" cx="12.5277" cy="14.8672" rx="12.5277" ry="14.8672"
                            transform="matrix(-0.972371 0.23344 0.465552 0.88502 147.075 164.999)" fill="#FFE0E0" />
                    </g>
                    <g id="Group 3">
                        <path id="Vector 1"
                            d="M97.6527 547.676V551.151H101.128H475.87H479.345V547.676V295.692C479.345 262.64 467.033 229.5 440.063 209.387C333.355 129.81 212.433 147.764 123.109 220.75C105.987 234.741 97.6527 256.222 97.6527 277.953V547.676Z"
                            fill="#61BCE2" stroke="black" stroke-width="6.95038" />
                        <path id="Vector 2" d="M186.27 547.742C186.27 413.658 381.46 385.856 389.859 547.742H186.27Z"
                            fill="#FFE0E0" />
                        <path id="Ellipse 1"
                            d="M492.666 288.814C492.666 332.272 456.926 367.585 412.737 367.585C368.547 367.585 332.807 332.272 332.807 288.814C332.807 245.356 368.547 210.043 412.737 210.043C456.926 210.043 492.666 245.356 492.666 288.814Z"
                            fill="white" stroke="black" stroke-width="6.95038" />
                        <path id="Ellipse 2"
                            d="M255.484 285.339C255.484 329.255 218.86 364.979 173.528 364.979C128.196 364.979 91.5712 329.255 91.5712 285.339C91.5712 241.423 128.196 205.699 173.528 205.699C218.86 205.699 255.484 241.423 255.484 285.339Z"
                            fill="white" stroke="black" stroke-width="5.21279" />
                        <g id="Group 1">
                            <circle id="Ellipse 3" cx="137.907" cy="293.158" r="22.2992" fill="black" />
                            <ellipse id="Ellipse 4" cx="132.404" cy="288.235" rx="9.26718" ry="8.68798" fill="white" />
                        </g>
                        <g id="Group 2">
                            <circle id="Ellipse 3_2" cx="373.641" cy="288.524" r="22.2992" fill="black" />
                            <ellipse id="Ellipse 4_2" cx="368.138" cy="283.601" rx="9.26718" ry="8.68798"
                                fill="white" />
                        </g>
                        <g id="Vector 4">
                            <path
                                d="M275.467 385.351V365.91V359.476H293.059H313.114V382.842C313.114 386.5 312.385 390.319 309.847 392.953C305.723 397.232 301.328 395.955 293.059 388.43C286.779 394.202 283.001 396.175 277.525 390.725C276.113 389.321 275.467 387.342 275.467 385.351Z"
                                fill="white" />
                            <path
                                d="M293.059 388.43C286.779 394.202 283.001 396.175 277.525 390.725C276.113 389.321 275.467 387.342 275.467 385.351V365.91V359.476H293.059M293.059 388.43V359.476M293.059 388.43C301.328 395.955 305.723 397.232 309.847 392.953C312.385 390.319 313.114 386.5 313.114 382.842V359.476H293.059"
                                stroke="black" stroke-width="6.04772" />
                        </g>
                        <path id="Vector 3"
                            d="M264.442 365.837L288.07 362.265C293.178 361.493 298.377 361.552 303.466 362.441L320.157 365.355C324.618 366.134 329.193 364.854 332.602 361.871C334.233 360.444 335.145 358.316 334.745 356.186C328.299 321.823 267.551 324.552 253.414 353.454C253.044 354.209 252.878 355.048 252.878 355.889C252.878 362.045 258.356 366.757 264.442 365.837Z"
                            fill="#C8BAAA" stroke="black" stroke-width="4.98887" />
                        <path id="Ellipse 5"
                            d="M316.614 326.429C316.709 330.129 314.594 333.779 310.597 336.646C306.611 339.505 300.934 341.424 294.508 341.589C288.082 341.754 282.313 340.129 278.186 337.479C274.047 334.822 271.747 331.285 271.652 327.585C271.556 323.885 273.672 320.235 277.669 317.368C281.654 314.509 287.332 312.59 293.758 312.424C300.184 312.259 305.953 313.884 310.08 316.534C314.219 319.192 316.519 322.729 316.614 326.429Z"
                            fill="#53514F" stroke="black" stroke-width="4.25461" />
                    </g>
                </g>
                <g id="Body">
                    <g id="RightEar">
                        <path id="Ellipse 6_3"
                            d="M442.323 210.007C423.167 219.663 398.951 216.071 387.89 203.345C376.829 190.618 381.948 172.24 401.105 162.584C420.261 152.929 444.477 156.521 455.538 169.247C466.6 181.973 461.48 200.352 442.323 210.007Z"
                            fill="#61BCE2" stroke="black" stroke-width="6.37119" />
                        <ellipse id="Ellipse 7_3" cx="12.5277" cy="14.8672" rx="12.5277" ry="14.8672"
                            transform="matrix(0.656007 0.754754 -0.89298 0.450096 424.311 167.529)" fill="#90D0EB" />
                    </g>
                    <g id="LeftEar">
                        <path id="Ellipse 6_4"
                            d="M92.6826 189.119C102.67 208.104 124.469 219.244 140.865 215.308C157.26 211.371 163.766 193.437 153.779 174.451C143.792 155.465 121.992 144.326 105.597 148.262C89.2012 152.198 82.6955 170.133 92.6826 189.119Z"
                            fill="#61BCE2" stroke="black" stroke-width="6.37119" />
                        <ellipse id="Ellipse 7_4" cx="12.5277" cy="14.8672" rx="12.5277" ry="14.8672"
                            transform="matrix(-0.972371 0.23344 0.465552 0.88502 132.016 164.999)" fill="#90D0EB" />
                    </g>
                    <g id="Main">
                        <path id="Vector 1_2"
                            d="M82.5937 534.973V538.449H86.0688H457.914H461.39V534.973V282.677C461.39 249.797 449.215 216.814 422.463 196.697C316.535 117.043 196.479 135.014 107.819 208.051C90.8389 222.039 82.5937 243.419 82.5937 265.038V534.973Z"
                            fill="#61BCE2" stroke="black" stroke-width="6.95038" />
                        <path id="Vector 2_2" d="M171.211 535C171.211 400.915 366.401 373.114 374.8 535H171.211Z"
                            fill="#90D0EB" />
                        <g id="LeftEye">
                            <path id="Ellipse 2_2"
                                d="M240.425 272.596C240.425 316.513 203.801 352.236 158.469 352.236C113.136 352.236 76.5119 316.513 76.5119 272.596C76.5119 228.68 113.136 192.957 158.469 192.957C203.801 192.957 240.425 228.68 240.425 272.596Z"
                                fill="white" stroke="black" stroke-width="5.21279" />
                            <g id="EyeBall">
                                <circle id="Ellipse 3_3" cx="94.2991" cy="272.307" r="22.2992" fill="black" />
                                <ellipse id="Ellipse 4_3" cx="88.7967" cy="267.384" rx="9.26718" ry="8.68798"
                                    fill="white" />
                            </g>
                        </g>
                        <g id="RightEye">
                            <path id="Ellipse 1_2"
                                d="M471.236 276.072C471.236 319.658 436.795 354.843 394.492 354.843C352.189 354.843 317.748 319.658 317.748 276.072C317.748 232.485 352.189 197.301 394.492 197.301C436.795 197.301 471.236 232.485 471.236 276.072Z"
                                fill="white" stroke="black" stroke-width="6.95038" />
                            <g id="EyeBall_2">
                                <circle id="Ellipse 3_4" cx="431.698" cy="276.072" r="30.6975" fill="black" />
                                <ellipse id="Ellipse 4_4" cx="424.123" cy="269.294" rx="12.7574" ry="11.9601"
                                    fill="white" />
                            </g>
                        </g>
                        <g id="Vector 4_2">
                            <path
                                d="M260.407 372.609V353.168V346.734H278H298.055V370.099C298.055 373.757 297.326 377.577 294.788 380.21C290.663 384.49 286.269 383.213 278 375.687C271.72 381.46 267.942 383.433 262.465 377.983C261.054 376.579 260.407 374.6 260.407 372.609Z"
                                fill="white" />
                            <path
                                d="M278 375.687C271.72 381.46 267.942 383.433 262.465 377.983C261.054 376.579 260.407 374.6 260.407 372.609V353.168V346.734H278M278 375.687V346.734M278 375.687C286.269 383.213 290.663 384.49 294.788 380.21C297.326 377.577 298.055 373.757 298.055 370.099V346.734H278"
                                stroke="black" stroke-width="6.04772" />
                        </g>
                        <path id="Vector 3_2"
                            d="M249.383 353.095L273.011 349.523C278.119 348.751 283.318 348.81 288.407 349.699L305.098 352.613C309.56 353.392 314.134 352.111 317.543 349.129C319.174 347.701 320.086 345.574 319.686 343.443C313.24 309.08 252.492 311.81 238.355 340.711C237.985 341.467 237.819 342.306 237.819 343.147C237.819 349.302 243.297 354.015 249.383 353.095Z"
                            fill="#C8BAAA" stroke="black" stroke-width="4.98887" />
                        <path id="Ellipse 5_2"
                            d="M301.555 313.686C301.65 317.386 299.535 321.037 295.538 323.903C291.552 326.762 285.874 328.682 279.448 328.847C273.022 329.012 267.254 327.387 263.126 324.737C258.987 322.079 256.687 318.542 256.592 314.842C256.497 311.142 258.612 307.492 262.609 304.625C266.595 301.767 272.273 299.847 278.699 299.682C285.125 299.517 290.893 301.142 295.021 303.792C299.16 306.45 301.46 309.986 301.555 313.686Z"
                            fill="#53514F" stroke="black" stroke-width="4.25461" />
                    </g>
                </g>
            </g>
        </g>
    </g>
    <defs>
        <filter id="filter0_f_40_1189" x="0" y="0" width="546" height="546" filterUnits="userSpaceOnUse"
            color-interpolation-filters="sRGB">
            <feFlood flood-opacity="0" result="BackgroundImageFix" />
            <feBlend mode="normal" in="SourceGraphic" in2="BackgroundImageFix" result="shape" />
            <feGaussianBlur stdDeviation="5.5" result="effect1_foregroundBlur_40_1189" />
        </filter>
        <clipPath id="clip0_40_1189">
            <rect x="11" y="11" width="524" height="524" rx="12" fill="white" />
        </clipPath>
    </defs>
</svg>